<?xml version="1.0" standalone="no"?>
<!DOCTYPE svg PUBLIC "-//W3C//DTD SVG 20010904//EN"
 "http://www.w3.org/TR/2001/REC-SVG-20010904/DTD/svg10.dtd">
<svg version="1.0" xmlns="http://www.w3.org/2000/svg"
 width="260.000000pt" height="260.000000pt" viewBox="0 0 260.000000 260.000000"
 preserveAspectRatio="xMidYMid meet">
<metadata>
Created by potrace 1.14, written by Peter Selinger 2001-2017
</metadata>
<g transform="translate(0.000000,260.000000) scale(0.100000,-0.100000)"
fill="#000000" stroke="none">
<path d="M1150 2593 c-114 -18 -241 -50 -320 -80 -8 -4 -17 -7 -20 -7 -17 -3
-151 -73 -199 -103 -173 -110 -369 -314 -444 -464 -10 -19 -21 -41 -26 -49
-28 -51 -42 -85 -70 -167 -17 -51 -38 -125 -47 -165 -19 -87 -27 -344 -13
-438 82 -557 488 -985 1041 -1099 128 -26 365 -26 498 1 256 52 470 164 659
348 182 175 308 405 368 671 21 92 24 405 5 489 -7 30 -14 66 -17 79 -23 119
-129 343 -222 466 -207 274 -500 452 -843 511 -35 6 -319 12 -350 7z"/>
</g>
</svg>
