<?xml version="1.0" standalone="no"?>
<!DOCTYPE svg PUBLIC "-//W3C//DTD SVG 20010904//EN"
 "http://www.w3.org/TR/2001/REC-SVG-20010904/DTD/svg10.dtd">
<svg version="1.0" xmlns="http://www.w3.org/2000/svg"
 width="260.000000pt" height="260.000000pt" viewBox="0 0 260.000000 260.000000"
 preserveAspectRatio="xMidYMid meet">
<metadata>
Created by potrace 1.14, written by Peter Selinger 2001-2017
</metadata>
<g transform="translate(0.000000,260.000000) scale(0.100000,-0.100000)"
fill="#000000" stroke="none">
<path d="M1085 2584 c-411 -71 -757 -327 -948 -701 -33 -64 -90 -218 -103
-277 -34 -150 -42 -382 -17 -521 87 -508 459 -912 958 -1045 116 -30 162 -35
340 -34 115 0 184 5 245 18 448 96 810 410 965 836 15 41 28 82 30 90 2 8 8
33 13 55 21 79 24 112 27 270 3 176 -8 265 -51 405 -120 395 -423 710 -814
848 -47 16 -110 35 -140 41 -30 6 -66 14 -80 17 -55 13 -346 12 -425 -2z"/>
</g>
</svg>
