<?xml version="1.0" standalone="no"?>
<!DOCTYPE svg PUBLIC "-//W3C//DTD SVG 20010904//EN"
 "http://www.w3.org/TR/2001/REC-SVG-20010904/DTD/svg10.dtd">
<svg version="1.0" xmlns="http://www.w3.org/2000/svg"
 width="260.000000pt" height="260.000000pt" viewBox="0 0 260.000000 260.000000"
 preserveAspectRatio="xMidYMid meet">
<metadata>
Created by potrace 1.14, written by Peter Selinger 2001-2017
</metadata>
<g transform="translate(0.000000,260.000000) scale(0.100000,-0.100000)"
fill="#000000" stroke="none">
<path d="M1190 2589 c-41 -4 -88 -10 -105 -13 -16 -3 -45 -9 -64 -12 -59 -10
-212 -63 -288 -100 -451 -220 -730 -668 -731 -1175 -1 -618 428 -1143 1043
-1274 101 -21 466 -15 550 9 33 10 67 19 75 21 157 39 376 164 520 298 104 98
212 243 280 378 35 68 94 241 105 304 3 22 10 63 15 90 13 78 9 307 -6 392
-82 455 -385 829 -806 996 -179 71 -394 102 -588 86z"/>
</g>
</svg>
